Coordinates
version=1
nRows=19
nColumns=24
inDegrees=yes

Units are S.I. units (second, meters, Newtons, ...)
Angles are in degrees.

endheader
time	pelvis_tilt	pelvis_list	pelvis_rotation	pelvis_tx	pelvis_ty	pelvis_tz	hip_flexion_r	hip_adduction_r	hip_rotation_r	knee_angle_r	ankle_angle_r	subtalar_angle_r	mtp_angle_r	hip_flexion_l	hip_adduction_l	hip_rotation_l	knee_angle_l	ankle_angle_l	subtalar_angle_l	mtp_angle_l	lumbar_extension	lumbar_bending	lumbar_rotation
      3.68000000	    -19.53366945	      9.56740693	     -6.61386496	     -2.27177580	     -0.04111388	     -0.30752726	     15.15618727	     -9.25186364	      0.47591904	    -54.43339322	    -41.27421314	    -14.19930077	      5.66642536	     43.95199324	     10.13236680	      2.07105351	    -28.57637282	     -3.63744112	    -10.63331185	     15.79791939	     15.17218671	     -8.54012868	      9.72905940
      3.68500000	    -19.54977250	      9.75428674	     -6.64450878	     -2.26413247	     -0.03967490	     -0.30788434	     16.46796630	     -9.23164838	      0.76089735	    -56.25231222	    -39.48783313	    -15.78834233	      1.54866492	     43.11066605	     10.31432073	      1.80147928	    -27.97374378	     -3.16376150	    -10.30243702	     16.77093197	     15.23327530	     -8.63815177	      9.61694319
      3.69000000	    -19.64257361	      9.75264169	     -6.61833677	     -2.25660358	     -0.03828285	     -0.30816249	     17.77010433	     -8.94553109	      1.01551147	    -57.84356242	    -37.92587084	    -17.54489748	     -1.51709903	     42.37819872	     10.31693975	      1.55859600	    -27.51214337	     -2.35526959	     -9.43673325	     17.36598034	     15.33663488	     -8.56496515	      9.37972525
      3.69500000	    -19.61138071	      9.83886731	     -6.69719548	     -2.24905021	     -0.03664504	     -0.30825528	     18.99643408	     -8.72062953	      1.33709812	    -59.40687762	    -35.83641759	    -18.95953189	     -6.10246075	     41.43533501	     10.37373599	      1.30990474	    -26.86883307	     -1.76273307	     -8.88966659	     17.83173311	     15.33828649	     -8.57739846	      9.29404780
      3.70000000	    -19.60511648	      9.87721282	     -6.74817836	     -2.24153237	     -0.03502071	     -0.30832865	     20.20470832	     -8.41534909	      1.66969325	    -60.81823992	    -33.76583692	    -20.21945080	    -10.16720471	     40.50882041	     10.40610342	      1.13348647	    -26.23240421	     -1.15379797	     -8.29470740	     18.07904112	     15.36096705	     -8.55019629	      9.15603818
      3.70500000	    -19.57829208	      9.89611521	     -6.81158164	     -2.23400627	     -0.03330462	     -0.30834703	     21.37385101	     -8.06602622	      2.02177377	    -62.11075266	    -31.61109047	    -21.20325101	    -14.48291981	     39.52489951	     10.42208041	      0.96902886	    -25.53699678	     -0.59954297	     -7.73456363	     18.14479646	     15.36439876	     -8.50456722	      9.02810376
      3.71000000	    -19.53845433	      9.89636090	     -6.85630049	     -2.22652586	     -0.03157242	     -0.30835787	     22.51198961	     -7.69993220	      2.32081924	    -63.30237540	    -29.36366307	    -22.01400932	    -19.18570673	     38.51825870	     10.44754180	      0.87283808	    -24.83005069	     -0.10977432	     -7.25119573	     18.01509043	     15.34573907	     -8.45388289	      8.91658944
      3.71500000	    -19.49361021	      9.87759167	     -6.89890620	     -2.21901784	     -0.02980875	     -0.30832107	     23.61808844	     -7.31005524	      2.58865243	    -64.38099874	    -27.01475622	    -22.60964885	    -24.25940239	     37.47488272	     10.46603682	      0.83049061	    -24.07687939	      0.33421450	     -6.82006618	     17.73617089	     15.32848555	     -8.38961043	      8.78503092
      3.72000000	    -19.42516444	      9.84990572	     -6.92873434	     -2.21150226	     -0.02800352	     -0.30823533	     24.68584664	     -6.91873032	      2.78287420	    -65.38155055	    -24.27589038	    -22.94207728	    -30.93561354	     36.37371498	     10.50358752	      0.90470497	    -23.27188322	      0.69538459	     -6.50849821	     17.24794444	     15.28502432	     -8.33280846	      8.63098827
      3.72500000	    -19.43324303	      9.73830158	     -6.89036053	     -2.20403636	     -0.02625636	     -0.30843395	     25.71747826	     -6.47341621	      3.06287192	    -66.05994467	    -23.46619579	    -23.76775274	    -30.85406866	     35.34808553	     10.51084306	      1.10015204	    -22.44875672	      0.90476062	     -6.35012688	     17.24903010	     15.29488311	     -8.17002461	      8.40545175
      3.73000000	    -19.56344148	      8.76781322	     -7.04766659	     -2.19707375	     -0.02340995	     -0.30731794	     26.67154911	     -4.70138517	      3.31212590	    -64.99540207	     -6.58306948	    -25.12548541	   -129.87975612	     34.44319898	      9.40020469	      1.13895933	    -21.85280504	      1.46922440	     -5.35382142	     17.43863975	     15.27347965	     -7.22113868	      8.20081137
      3.73500000	    -19.53781426	      8.66553794	     -7.02820831	     -2.18963715	     -0.02165027	     -0.30737620	     27.65197821	     -4.28662950	      3.54494479	    -65.54308251	     -5.40874585	    -25.41973358	   -129.95630863	     33.36197557	      9.40342704	      1.31181530	    -20.96112550	      1.53904050	     -5.32806504	     17.29614533	     15.25453009	     -7.09001252	      8.02805796
      3.74000000	    -19.47930940	      8.58619889	     -6.99955003	     -2.18218291	     -0.01985048	     -0.30747454	     28.58160971	     -3.93597355	      3.73029488	    -65.98951899	     -4.23127641	    -25.64890392	   -130.28594351	     32.20554134	      9.46473107	      1.63619376	    -19.98862847	      1.45681908	     -5.52660491	     16.83251738	     15.20423466	     -6.98867705	      7.85769148
      3.74500000	    -19.43226971	      8.43606229	     -6.93621935	     -2.17475607	     -0.01808312	     -0.30758037	     29.47610875	     -3.54287178	      3.83612898	    -66.33181979	     -2.94997263	    -25.71040823	   -130.78512910	     31.06678861	      9.46470795	      2.00561710	    -19.04489046	      1.39565491	     -5.67629608	     16.31807243	     15.14958129	     -6.83007218	      7.63441746
      3.75000000	    -19.38686033	      8.24110799	     -6.84650643	     -2.16735850	     -0.01632119	     -0.30769629	     30.33353474	     -3.13360889	      3.87899189	    -66.56559832	     -1.60421102	    -25.64932452	   -131.44480279	     29.92485994	      9.42846427	      2.43961219	    -18.09694978	      1.27877714	     -5.86059268	     15.75604673	     15.08395748	     -6.63818154	      7.37304087
      3.75500000	    -19.34369220	      7.96470892	     -6.75589981	     -2.15998421	     -0.01451880	     -0.30785211	     31.13882688	     -2.65888225	      3.88534781	    -66.64443999	     -0.22553301	    -25.50559727	   -132.65805383	     28.78158542	      9.31647672	      2.93367832	    -17.16258594	      1.09752932	     -6.16866891	     14.89743892	     15.00610869	     -6.35955510	      7.09008418
      3.76000000	    -19.30896059	      7.69695526	     -6.60554111	     -2.15262229	     -0.01281731	     -0.30799944	     31.92691145	     -2.25258655	      3.78791608	    -66.65821657	      1.29255980	    -25.21487346	   -133.67206428	     27.66813969	      9.20816815	      3.42112536	    -16.25569565	      0.94083579	     -6.28779481	     14.29015465	     14.93508474	     -6.12252873	      6.82370852
      3.76500000	    -19.28866266	      7.38456473	     -6.42386782	     -2.14532958	     -0.01116749	     -0.30816909	     32.69784999	     -1.82356534	      3.64944346	    -66.57842037	      2.82704739	    -24.80392291	   -134.67787048	     26.58592365	      9.05350424	      3.94321405	    -15.37549458	      0.76228750	     -6.41705762	     13.72070717	     14.86188307	     -5.85300476	      6.47089370
      3.77000000	    -19.27576280	      7.05185486	     -6.21538640	     -2.13807615	     -0.00957316	     -0.30835167	     33.44497106	     -1.40455823	      3.46968763	    -66.40088659	      4.37903553	    -24.29067126	   -135.69188166	     25.53337652	      8.87097079	      4.46424274	    -14.53046991	      0.57841390	     -6.49939276	     13.16533625	     14.78754390	     -5.57419221	      6.09203880
